# 3ds Max Wavefront OBJ Exporter v0.97b - (c)2007 guruware
# File Created: 13.10.2018 18:14:00

#
# object Object001
#

v  -5.6341 0.1108 24.7258
v  -3.8989 0.5179 24.6737
v  -3.6021 0.5179 23.1816
v  -5.2052 0.1108 22.5696
v  -5.2052 0.1108 26.8819
v  -3.6021 0.5179 26.1658
v  -3.9839 0.1108 28.7098
v  -2.7569 0.5179 27.4307
v  -2.1560 0.1108 29.9311
v  -1.4920 0.5179 28.2759
v  0.0001 0.1108 30.3600
v  0.0001 0.5179 28.5727
v  2.1562 0.1108 29.9311
v  1.4922 0.5179 28.2759
v  3.9841 0.1108 28.7097
v  2.7571 0.5179 27.4307
v  5.2055 0.1108 26.8819
v  3.6023 0.5179 26.1658
v  5.6343 0.1108 24.7258
v  3.8991 0.5179 24.6737
v  5.2055 0.1108 22.5696
v  3.6023 0.5179 23.1816
v  3.9841 0.1108 20.7418
v  2.7571 0.5179 21.9167
v  2.1562 0.1108 19.5204
v  1.4922 0.5179 21.0715
v  0.0001 0.1108 19.1195
v  0.0001 0.5179 20.7940
v  -2.1560 0.1108 19.5204
v  -1.4920 0.5179 21.0715
v  -3.9839 0.1108 20.7418
v  -2.7569 0.5179 21.9167
v  -1.8712 0.8401 25.4490
v  -2.0254 0.8401 24.6739
v  -1.4321 0.8401 26.1061
v  -0.7750 0.8401 26.5452
v  0.0001 0.8401 26.6994
v  0.7752 0.8401 26.5452
v  1.4324 0.8401 26.1061
v  1.8714 0.8401 25.4490
v  2.0256 0.8401 24.6739
v  1.8714 0.8401 23.8988
v  1.4324 0.8401 23.2416
v  0.7752 0.8401 22.8026
v  0.0001 0.8401 22.6584
v  -0.7750 0.8401 22.8026
v  -1.4321 0.8401 23.2416
v  -1.8712 0.8401 23.8988
v  0.0001 0.9548 24.6745
v  -5.6341 -0.0015 24.7258
v  -5.2052 -0.0015 22.5696
v  -3.6021 0.4056 23.1816
v  -3.8989 0.4056 24.6737
v  -5.2052 -0.0015 26.8819
v  -3.6021 0.4056 26.1658
v  -3.9839 -0.0015 28.7098
v  -2.7569 0.4056 27.4307
v  -2.1560 -0.0015 29.9311
v  -1.4920 0.4056 28.2759
v  0.0001 -0.0015 30.3600
v  0.0001 0.4056 28.5727
v  2.1562 -0.0015 29.9311
v  1.4922 0.4056 28.2759
v  3.9841 -0.0015 28.7097
v  2.7571 0.4056 27.4307
v  5.2055 -0.0015 26.8819
v  3.6023 0.4056 26.1658
v  5.6343 -0.0015 24.7258
v  3.8991 0.4056 24.6737
v  5.2055 -0.0015 22.5696
v  3.6023 0.4056 23.1816
v  3.9841 -0.0015 20.7418
v  2.7571 0.4056 21.9167
v  2.1562 -0.0015 19.5204
v  1.4922 0.4056 21.0715
v  0.0001 -0.0015 19.1195
v  0.0001 0.4056 20.7940
v  -2.1560 -0.0015 19.5204
v  -1.4920 0.4056 21.0715
v  -3.9839 -0.0015 20.7418
v  -2.7569 0.4056 21.9167
v  -2.0254 0.7278 24.6739
v  -1.8712 0.7278 25.4490
v  -1.4321 0.7278 26.1061
v  -0.7750 0.7278 26.5452
v  0.0001 0.7278 26.6994
v  0.7752 0.7278 26.5452
v  1.4324 0.7278 26.1061
v  1.8714 0.7278 25.4490
v  2.0256 0.7278 24.6739
v  1.8714 0.7278 23.8988
v  1.4324 0.7278 23.2416
v  0.7752 0.7278 22.8026
v  0.0001 0.7278 22.6584
v  -0.7750 0.7278 22.8026
v  -1.4321 0.7278 23.2416
v  -1.8712 0.7278 23.8988
v  0.0001 0.8425 24.6745
# 98 vertices

vn -0.2284 0.9736 0.0007
vn -0.2027 0.9792 -0.0006
vn -0.1883 0.9790 -0.0786
vn -0.2136 0.9730 -0.0878
vn -0.2085 0.9741 0.0871
vn -0.1862 0.9795 0.0766
vn -0.1580 0.9746 0.1587
vn -0.1418 0.9798 0.1412
vn -0.0849 0.9749 0.2057
vn -0.0765 0.9799 0.1841
vn 0.0000 0.9750 0.2221
vn 0.0000 0.9800 0.1991
vn 0.0849 0.9749 0.2057
vn 0.0765 0.9799 0.1841
vn 0.1580 0.9746 0.1587
vn 0.1418 0.9798 0.1412
vn 0.2085 0.9741 0.0871
vn 0.1862 0.9795 0.0766
vn 0.2284 0.9736 0.0007
vn 0.2027 0.9792 -0.0006
vn 0.2136 0.9730 -0.0878
vn 0.1883 0.9790 -0.0786
vn 0.1652 0.9724 -0.1645
vn 0.1449 0.9787 -0.1455
vn 0.0888 0.9721 -0.2171
vn 0.0774 0.9785 -0.1912
vn 0.0000 0.9717 -0.2363
vn 0.0000 0.9783 -0.2072
vn -0.0888 0.9721 -0.2171
vn -0.0774 0.9785 -0.1912
vn -0.1652 0.9724 -0.1645
vn -0.1449 0.9787 -0.1455
vn -0.1110 0.9928 0.0460
vn -0.1202 0.9928 0.0000
vn -0.0850 0.9927 0.0850
vn -0.0460 0.9927 0.1111
vn 0.0000 0.9927 0.1202
vn 0.0460 0.9927 0.1111
vn 0.0850 0.9927 0.0850
vn 0.1110 0.9928 0.0460
vn 0.1202 0.9928 0.0000
vn 0.1110 0.9928 -0.0460
vn 0.0850 0.9928 -0.0850
vn 0.0453 0.9927 -0.1115
vn 0.0000 0.9927 -0.1203
vn -0.0453 0.9927 -0.1115
vn -0.0850 0.9928 -0.0850
vn -0.1110 0.9928 -0.0460
vn 0.0000 1.0000 -0.0000
vn 0.2284 -0.9736 -0.0007
vn 0.2136 -0.9730 0.0878
vn 0.1883 -0.9790 0.0786
vn 0.2027 -0.9792 0.0006
vn 0.2085 -0.9741 -0.0871
vn 0.1862 -0.9795 -0.0766
vn 0.1580 -0.9746 -0.1587
vn 0.1418 -0.9798 -0.1412
vn 0.0849 -0.9749 -0.2057
vn 0.0765 -0.9799 -0.1841
vn -0.0000 -0.9750 -0.2221
vn -0.0000 -0.9800 -0.1991
vn -0.0849 -0.9749 -0.2057
vn -0.0765 -0.9799 -0.1841
vn -0.1580 -0.9746 -0.1587
vn -0.1418 -0.9798 -0.1412
vn -0.2085 -0.9741 -0.0871
vn -0.1862 -0.9795 -0.0766
vn -0.2284 -0.9736 -0.0007
vn -0.2027 -0.9792 0.0006
vn -0.2136 -0.9730 0.0878
vn -0.1883 -0.9790 0.0786
vn -0.1652 -0.9724 0.1645
vn -0.1449 -0.9787 0.1455
vn -0.0888 -0.9721 0.2171
vn -0.0774 -0.9785 0.1912
vn -0.0000 -0.9717 0.2363
vn -0.0000 -0.9783 0.2072
vn 0.0888 -0.9721 0.2171
vn 0.0774 -0.9785 0.1912
vn 0.1652 -0.9724 0.1645
vn 0.1449 -0.9787 0.1455
vn 0.1202 -0.9928 -0.0000
vn 0.1110 -0.9928 -0.0460
vn 0.0850 -0.9927 -0.0850
vn 0.0460 -0.9927 -0.1111
vn -0.0000 -0.9927 -0.1202
vn -0.0460 -0.9927 -0.1111
vn -0.0850 -0.9927 -0.0850
vn -0.1110 -0.9928 -0.0460
vn -0.1202 -0.9928 -0.0000
vn -0.1110 -0.9928 0.0460
vn -0.0850 -0.9928 0.0850
vn -0.0453 -0.9927 0.1115
vn -0.0000 -0.9927 0.1203
vn 0.0453 -0.9927 0.1115
vn 0.0850 -0.9928 0.0850
vn 0.1110 -0.9928 0.0460
vn -0.0000 -1.0000 0.0000
# 98 vertex normals

vt 0.3419 0.9353 0.0000
vt 0.3101 0.8850 0.0000
vt 0.3468 0.8479 0.0000
vt 0.3950 0.8818 0.0000
vt 0.2724 0.9645 0.0000
vt 0.2620 0.9051 0.0000
vt 0.1969 0.9648 0.0000
vt 0.2098 0.9054 0.0000
vt 0.1272 0.9362 0.0000
vt 0.1615 0.8856 0.0000
vt 0.0736 0.8832 0.0000
vt 0.1244 0.8489 0.0000
vt 0.0444 0.8136 0.0000
vt 0.1043 0.8008 0.0000
vt 0.0441 0.7382 0.0000
vt 0.1040 0.7486 0.0000
vt 0.0727 0.6684 0.0000
vt 0.1238 0.7003 0.0000
vt 0.1258 0.6149 0.0000
vt 0.1605 0.6632 0.0000
vt 0.1953 0.5857 0.0000
vt 0.2086 0.6430 0.0000
vt 0.2707 0.5854 0.0000
vt 0.2608 0.6428 0.0000
vt 0.3405 0.6139 0.0000
vt 0.3091 0.6626 0.0000
vt 0.3932 0.6676 0.0000
vt 0.3456 0.6997 0.0000
vt 0.4232 0.7366 0.0000
vt 0.3664 0.7474 0.0000
vt 0.4235 0.8120 0.0000
vt 0.3666 0.7996 0.0000
vt 0.2491 0.8422 0.0000
vt 0.2741 0.8317 0.0000
vt 0.2220 0.8423 0.0000
vt 0.1970 0.8320 0.0000
vt 0.1777 0.8130 0.0000
vt 0.1672 0.7880 0.0000
vt 0.1671 0.7608 0.0000
vt 0.1774 0.7358 0.0000
vt 0.1964 0.7165 0.0000
vt 0.2214 0.7060 0.0000
vt 0.2486 0.7059 0.0000
vt 0.2736 0.7162 0.0000
vt 0.2926 0.7354 0.0000
vt 0.3034 0.7603 0.0000
vt 0.3035 0.7874 0.0000
vt 0.2932 0.8124 0.0000
vt 0.2353 0.7741 0.0000
# 49 texture coords

g Object001
s 1
f 1/1/1 2/2/2 3/3/3 4/4/4 
f 5/5/5 6/6/6 2/2/2 1/1/1 
f 7/7/7 8/8/8 6/6/6 5/5/5 
f 9/9/9 10/10/10 8/8/8 7/7/7 
f 11/11/11 12/12/12 10/10/10 9/9/9 
f 13/13/13 14/14/14 12/12/12 11/11/11 
f 15/15/15 16/16/16 14/14/14 13/13/13 
f 17/17/17 18/18/18 16/16/16 15/15/15 
f 19/19/19 20/20/20 18/18/18 17/17/17 
f 21/21/21 22/22/22 20/20/20 19/19/19 
f 23/23/23 24/24/24 22/22/22 21/21/21 
f 25/25/25 26/26/26 24/24/24 23/23/23 
f 27/27/27 28/28/28 26/26/26 25/25/25 
f 29/29/29 30/30/30 28/28/28 27/27/27 
f 31/31/31 32/32/32 30/30/30 29/29/29 
f 4/4/4 3/3/3 32/32/32 31/31/31 
f 2/2/2 6/6/6 33/33/33 34/34/34 
f 6/6/6 8/8/8 35/35/35 33/33/33 
f 8/8/8 10/10/10 36/36/36 35/35/35 
f 10/10/10 12/12/12 37/37/37 36/36/36 
f 12/12/12 14/14/14 38/38/38 37/37/37 
f 14/14/14 16/16/16 39/39/39 38/38/38 
f 16/16/16 18/18/18 40/40/40 39/39/39 
f 18/18/18 20/20/20 41/41/41 40/40/40 
f 20/20/20 22/22/22 42/42/42 41/41/41 
f 22/22/22 24/24/24 43/43/43 42/42/42 
f 24/24/24 26/26/26 44/44/44 43/43/43 
f 26/26/26 28/28/28 45/45/45 44/44/44 
f 28/28/28 30/30/30 46/46/46 45/45/45 
f 30/30/30 32/32/32 47/47/47 46/46/46 
f 32/32/32 3/3/3 48/48/48 47/47/47 
f 3/3/3 2/2/2 34/34/34 48/48/48 
f 48/48/48 34/34/34 49/49/49 
f 34/34/34 33/33/33 49/49/49 
f 33/33/33 35/35/35 49/49/49 
f 35/35/35 36/36/36 49/49/49 
f 36/36/36 37/37/37 49/49/49 
f 37/37/37 38/38/38 49/49/49 
f 38/38/38 39/39/39 49/49/49 
f 39/39/39 40/40/40 49/49/49 
f 40/40/40 41/41/41 49/49/49 
f 41/41/41 42/42/42 49/49/49 
f 42/42/42 43/43/43 49/49/49 
f 43/43/43 44/44/44 49/49/49 
f 44/44/44 45/45/45 49/49/49 
f 45/45/45 46/46/46 49/49/49 
f 46/46/46 47/47/47 49/49/49 
f 47/47/47 48/48/48 49/49/49 
f 50/1/50 51/4/51 52/3/52 53/2/53 
f 54/5/54 50/1/50 53/2/53 55/6/55 
f 56/7/56 54/5/54 55/6/55 57/8/57 
f 58/9/58 56/7/56 57/8/57 59/10/59 
f 60/11/60 58/9/58 59/10/59 61/12/61 
f 62/13/62 60/11/60 61/12/61 63/14/63 
f 64/15/64 62/13/62 63/14/63 65/16/65 
f 66/17/66 64/15/64 65/16/65 67/18/67 
f 68/19/68 66/17/66 67/18/67 69/20/69 
f 70/21/70 68/19/68 69/20/69 71/22/71 
f 72/23/72 70/21/70 71/22/71 73/24/73 
f 74/25/74 72/23/72 73/24/73 75/26/75 
f 76/27/76 74/25/74 75/26/75 77/28/77 
f 78/29/78 76/27/76 77/28/77 79/30/79 
f 80/31/80 78/29/78 79/30/79 81/32/81 
f 51/4/51 80/31/80 81/32/81 52/3/52 
f 53/2/53 82/34/82 83/33/83 55/6/55 
f 55/6/55 83/33/83 84/35/84 57/8/57 
f 57/8/57 84/35/84 85/36/85 59/10/59 
f 59/10/59 85/36/85 86/37/86 61/12/61 
f 61/12/61 86/37/86 87/38/87 63/14/63 
f 63/14/63 87/38/87 88/39/88 65/16/65 
f 65/16/65 88/39/88 89/40/89 67/18/67 
f 67/18/67 89/40/89 90/41/90 69/20/69 
f 69/20/69 90/41/90 91/42/91 71/22/71 
f 71/22/71 91/42/91 92/43/92 73/24/73 
f 73/24/73 92/43/92 93/44/93 75/26/75 
f 75/26/75 93/44/93 94/45/94 77/28/77 
f 77/28/77 94/45/94 95/46/95 79/30/79 
f 79/30/79 95/46/95 96/47/96 81/32/81 
f 81/32/81 96/47/96 97/48/97 52/3/52 
f 52/3/52 97/48/97 82/34/82 53/2/53 
f 97/48/97 98/49/98 82/34/82 
f 82/34/82 98/49/98 83/33/83 
f 83/33/83 98/49/98 84/35/84 
f 84/35/84 98/49/98 85/36/85 
f 85/36/85 98/49/98 86/37/86 
f 86/37/86 98/49/98 87/38/87 
f 87/38/87 98/49/98 88/39/88 
f 88/39/88 98/49/98 89/40/89 
f 89/40/89 98/49/98 90/41/90 
f 90/41/90 98/49/98 91/42/91 
f 91/42/91 98/49/98 92/43/92 
f 92/43/92 98/49/98 93/44/93 
f 93/44/93 98/49/98 94/45/94 
f 94/45/94 98/49/98 95/46/95 
f 95/46/95 98/49/98 96/47/96 
f 96/47/96 98/49/98 97/48/97 
# 64 polygons - 32 triangles

